<svg width="76" height="38" viewBox="0 0 76 38" fill="none" xmlns="http://www.w3.org/2000/svg">
<circle cx="15" cy="20" r="15" fill="#FFDCE0"/>
<circle cx="61" cy="20" r="15" fill="#FFDCE0"/>
<circle cx="40" cy="19" r="19" fill="#CD6799"/>
<path d="M6.58523 12.9091H8.47727L12.9261 23.7756H13.0795L17.5284 12.9091H19.4205V26H17.9375V16.054H17.8097L13.7188 26H12.2869L8.19602 16.054H8.06818V26H6.58523V12.9091ZM67.7092 16.1818C67.6325 15.5341 67.3214 15.0312 66.7759 14.6733C66.2305 14.3153 65.5614 14.1364 64.7688 14.1364C64.1893 14.1364 63.6822 14.2301 63.2475 14.4176C62.8171 14.6051 62.4805 14.8629 62.2376 15.1911C61.9989 15.5192 61.8796 15.892 61.8796 16.3097C61.8796 16.6591 61.9627 16.9595 62.1289 17.2109C62.2994 17.4581 62.5167 17.6648 62.7809 17.831C63.0451 17.9929 63.3221 18.1271 63.6119 18.2337C63.9016 18.3359 64.168 18.419 64.4109 18.483L65.7404 18.8409C66.0813 18.9304 66.4606 19.054 66.8782 19.2116C67.3001 19.3693 67.7028 19.5845 68.0863 19.8572C68.4741 20.1257 68.7937 20.4709 69.0451 20.8928C69.2965 21.3146 69.4222 21.8324 69.4222 22.446C69.4222 23.1534 69.2369 23.7926 68.8661 24.3636C68.4996 24.9347 67.9627 25.3885 67.2553 25.7251C66.5522 26.0618 65.6978 26.2301 64.6921 26.2301C63.7546 26.2301 62.9428 26.0788 62.2567 25.7763C61.5749 25.4737 61.038 25.0518 60.646 24.5107C60.2582 23.9695 60.0387 23.3409 59.9876 22.625H61.6239C61.6665 23.1193 61.8327 23.5284 62.1225 23.8523C62.4165 24.1719 62.7873 24.4105 63.2347 24.5682C63.6864 24.7216 64.1722 24.7983 64.6921 24.7983C65.2972 24.7983 65.8406 24.7003 66.3221 24.5043C66.8036 24.304 67.185 24.027 67.4663 23.6733C67.7475 23.3153 67.8881 22.8977 67.8881 22.4205C67.8881 21.9858 67.7667 21.6321 67.5238 21.3594C67.2809 21.0866 66.9613 20.8651 66.565 20.6946C66.1687 20.5241 65.7404 20.375 65.2802 20.2472L63.6694 19.7869C62.6467 19.4929 61.837 19.0732 61.2404 18.5277C60.6438 17.9822 60.3455 17.2685 60.3455 16.3864C60.3455 15.6534 60.5437 15.0142 60.94 14.4688C61.3406 13.919 61.8775 13.4929 62.5508 13.1903C63.2283 12.8835 63.9847 12.7301 64.82 12.7301C65.6637 12.7301 66.4137 12.8814 67.07 13.1839C67.7262 13.4822 68.2461 13.8913 68.6296 14.4112C69.0174 14.9311 69.2219 15.5213 69.2433 16.1818H67.7092Z" fill="#CD6799"/>
<path d="M31.1898 12.9091H32.775V21.5767C32.775 22.4716 32.5641 23.2706 32.1422 23.9737C31.7246 24.6726 31.1344 25.2244 30.3716 25.6293C29.6088 26.0298 28.714 26.2301 27.687 26.2301C26.66 26.2301 25.7651 26.0298 25.0023 25.6293C24.2395 25.2244 23.6472 24.6726 23.2253 23.9737C22.8077 23.2706 22.5989 22.4716 22.5989 21.5767V12.9091H24.1841V21.4489C24.1841 22.0881 24.3248 22.657 24.606 23.1555C24.8873 23.6499 25.2878 24.0398 25.8077 24.3253C26.3319 24.6065 26.9583 24.7472 27.687 24.7472C28.4157 24.7472 29.0421 24.6065 29.5662 24.3253C30.0904 24.0398 30.4909 23.6499 30.7679 23.1555C31.0492 22.657 31.1898 22.0881 31.1898 21.4489V12.9091ZM35.9407 26V12.9091H40.364C41.3867 12.9091 42.2262 13.0838 42.8825 13.4332C43.5387 13.7784 44.0245 14.2536 44.3398 14.8587C44.6552 15.4638 44.8129 16.152 44.8129 16.9233C44.8129 17.6946 44.6552 18.3786 44.3398 18.9751C44.0245 19.5717 43.5408 20.0405 42.8888 20.3814C42.2369 20.718 41.4038 20.8864 40.3896 20.8864H36.81V19.4545H40.3384C41.0373 19.4545 41.5998 19.3523 42.0259 19.1477C42.4563 18.9432 42.7674 18.6534 42.9592 18.2784C43.1552 17.8991 43.2532 17.4474 43.2532 16.9233C43.2532 16.3991 43.1552 15.9411 42.9592 15.549C42.7631 15.157 42.4499 14.8544 42.0195 14.6413C41.5891 14.424 41.0202 14.3153 40.3129 14.3153H37.5259V26H35.9407ZM42.1026 20.1193L45.3242 26H43.4833L40.3129 20.1193H42.1026ZM57.9885 17H56.4032C56.3095 16.544 56.1454 16.1435 55.911 15.7983C55.6809 15.4531 55.3997 15.1634 55.0673 14.929C54.7392 14.6903 54.3748 14.5114 53.9743 14.392C53.5737 14.2727 53.1561 14.2131 52.7214 14.2131C51.9288 14.2131 51.2108 14.4134 50.5673 14.8139C49.9281 15.2145 49.4189 15.8047 49.0396 16.5845C48.6646 17.3643 48.4771 18.321 48.4771 19.4545C48.4771 20.5881 48.6646 21.5447 49.0396 22.3246C49.4189 23.1044 49.9281 23.6946 50.5673 24.0952C51.2108 24.4957 51.9288 24.696 52.7214 24.696C53.1561 24.696 53.5737 24.6364 53.9743 24.517C54.3748 24.3977 54.7392 24.2209 55.0673 23.9865C55.3997 23.7479 55.6809 23.456 55.911 23.1108C56.1454 22.7614 56.3095 22.3608 56.4032 21.9091H57.9885C57.8691 22.5781 57.6518 23.1768 57.3365 23.7053C57.0211 24.2337 56.6291 24.6832 56.1603 25.054C55.6916 25.4205 55.1653 25.6996 54.5815 25.8913C54.002 26.0831 53.3819 26.179 52.7214 26.179C51.6049 26.179 50.612 25.9062 49.7427 25.3608C48.8734 24.8153 48.1895 24.0398 47.6909 23.0341C47.1923 22.0284 46.943 20.8352 46.943 19.4545C46.943 18.0739 47.1923 16.8807 47.6909 15.875C48.1895 14.8693 48.8734 14.0938 49.7427 13.5483C50.612 13.0028 51.6049 12.7301 52.7214 12.7301C53.3819 12.7301 54.002 12.826 54.5815 13.0178C55.1653 13.2095 55.6916 13.4908 56.1603 13.8615C56.6291 14.228 57.0211 14.6754 57.3365 15.2038C57.6518 15.728 57.8691 16.3267 57.9885 17Z" fill="#FFDCE0"/>
</svg>
