<svg width="18" height="20" viewBox="0 0 18 20" fill="none" xmlns="http://www.w3.org/2000/svg">
<path d="M16.38 12.38C16.5768 12.577 16.7329 12.8109 16.8392 13.0683C16.9456 13.3257 17.0002 13.6015 17 13.88C17 14.4423 16.7766 14.9815 16.3791 15.3791C15.9815 15.7766 15.4423 16 14.88 16H3.12C2.55774 16 2.01851 15.7766 1.62093 15.3791C1.22336 14.9815 1 14.4423 1 13.88C0.999755 13.6015 1.05438 13.3257 1.16077 13.0683C1.26715 12.8109 1.4232 12.577 1.62 12.38L3 11V7C3 5.4087 3.63214 3.88258 4.75736 2.75736C5.88258 1.63214 7.4087 1 9 1C10.5913 1 12.1174 1.63214 13.2426 2.75736C14.3679 3.88258 15 5.4087 15 7V11L16.38 12.38ZM12 16H6C6 16.7956 6.31607 17.5587 6.87868 18.1213C7.44129 18.6839 8.20435 19 9 19C9.79565 19 10.5587 18.6839 11.1213 18.1213C11.6839 17.5587 12 16.7956 12 16Z" stroke="#CD6799" stroke-width="2" stroke-linecap="round" stroke-linejoin="round"/>
</svg>
